<svg id="Group_350" data-name="Group 350" xmlns="http://www.w3.org/2000/svg" width="11.125" height="15.17" viewBox="0 0 11.125 15.17">
  <path id="Path_170" data-name="Path 170" d="M12.667,18.969,11.508,17.81l-.715.715L12.667,20.4l3.391-3.391-.715-.715Z" transform="translate(-7.864 -8.56)" fill="#25a407"/>
  <path id="Path_171" data-name="Path 171" d="M14.608,6.8V5.045a4.045,4.045,0,1,0-8.091,0V6.8a5.562,5.562,0,1,0,8.091,0ZM7.528,5.045a3.034,3.034,0,1,1,6.068,0v.9a5.543,5.543,0,0,0-6.068,0Zm3.034,10.113a4.551,4.551,0,1,1,4.551-4.551A4.551,4.551,0,0,1,10.562,15.159Z" transform="translate(-5 -1)" fill="#25a407"/>
</svg>
