<svg xmlns="http://www.w3.org/2000/svg" width="316.186" height="504.006" viewBox="0 0 316.186 504.006">
  <g id="sand-timer" transform="translate(-191.909 -27.998)">
    <path id="Path_168" data-name="Path 168" d="M491.95,499.73h-4.895V479.785a196.9,196.9,0,0,0-58.039-140.12L386.962,297.61a24.936,24.936,0,0,1,0-35.23l42.055-42.055a196.858,196.858,0,0,0,58.039-140.12V60.264h4.895a16.133,16.133,0,1,0,0-32.266H208.05a16.133,16.133,0,1,0,0,32.266h4.895V80.205a196.85,196.85,0,0,0,58.043,140.12l42.055,42.055a24.936,24.936,0,0,1,0,35.23l-42.055,42.055a196.837,196.837,0,0,0-58.043,140.12V499.73H208.05a16.137,16.137,0,1,0,0,32.274H491.94a16.137,16.137,0,1,0,.008-32.274Zm-18.895,0H226.945V479.785a182.963,182.963,0,0,1,53.938-130.22l42.055-42.055a38.967,38.967,0,0,0,0-55.027l-42.055-42.055a182.954,182.954,0,0,1-53.938-130.22V60.267h246.1V80.208a182.957,182.957,0,0,1-53.938,130.22l-42.055,42.055a38.952,38.952,0,0,0,0,55.027l42.055,42.055a182.941,182.941,0,0,1,53.938,130.22V499.73Zm-87.5-56.7c-6.3-7.984-11.547-16.094-18.9-23.094-1.746-1.687-2.1-1.125-4.406-.707a3.046,3.046,0,0,1-3.566-3.008V280a45.775,45.775,0,0,1,13.434-32.48L414.2,205.456a176.471,176.471,0,0,0,33.18-45.922H252.626a176.385,176.385,0,0,0,33.18,45.922l42.07,42.066A45.778,45.778,0,0,1,341.317,280v143.15c0,4.266-1.82,5.039-2.727,5.6-4.207,2.727-8.473,5.527-11.129,9.793-1.4,2.313-2.312,4.91-3.645,7.293a19.666,19.666,0,0,1-12.387,9.168c-3.852.906-7.984.629-11.9,1.4-6.512,1.328-12.035,5.6-17.148,9.871a351.941,351.941,0,0,0-28.559,26.461h196.84c-.7-1.605-1.469-3.215-2.309-4.828a13.858,13.858,0,0,0-2.594-3.781,14.16,14.16,0,0,0-4.973-2.312,115.685,115.685,0,0,1-55.234-38.785Z"/>
  </g>
</svg>
