<svg xmlns="http://www.w3.org/2000/svg" width="24.904" height="24.904" viewBox="0 0 24.904 24.904">
  <path id="Upload" d="M25.822,19.282a.735.735,0,0,1-.539,1.234h-2.8v2.5a.735.735,0,0,1-.735.735H16.313a.735.735,0,0,1-.735-.735v-2.5h-2.8a.735.735,0,0,1-.539-1.234l6.2-6.7a.75.75,0,0,1,.588-.23.74.74,0,0,1,.588.23Zm5.663-.25A12.452,12.452,0,1,1,19.032,6.58,12.452,12.452,0,0,1,31.484,19.032Zm-1.47,0A10.983,10.983,0,1,0,19.032,30.015,10.983,10.983,0,0,0,30.015,19.032Z" transform="translate(-6.58 -6.58)" fill="#429fb8"/>
</svg>
