<svg xmlns="http://www.w3.org/2000/svg" width="30.32" height="30.32" viewBox="0 0 30.32 30.32">
  <path id="noun-circled-plus-3579235" d="M140.66,56A14.66,14.66,0,1,1,126,70.66,14.66,14.66,0,0,1,140.66,56Zm0,1.833A12.828,12.828,0,1,0,153.488,70.66,12.828,12.828,0,0,0,140.66,57.833Zm.046,5.464a.885.885,0,0,1,.884.884l.007,5.6,5.565.007a.886.886,0,0,1,0,1.773h0l-5.566-.009.006,5.478a.881.881,0,0,1-.88.882h0a.885.885,0,0,1-.884-.884l-.007-5.478-5.692-.005a.886.886,0,0,1,0-1.772h0l5.693.006-.007-5.6a.881.881,0,0,1,.7-.864l.177-.018Z" transform="translate(-125.5 -55.5)" fill="#c5c2c2" stroke="#c5c2c2" stroke-width="1" fill-rule="evenodd"/>
</svg>
