<svg xmlns="http://www.w3.org/2000/svg" width="25.047" height="26.001" viewBox="0 0 25.047 26.001">
  <path id="Path_168" data-name="Path 168" d="M13.984,3a.5.5,0,0,0-.238.064,4.72,4.72,0,0,0-2.369,3.63H4.5a.5.5,0,0,0-.5.5v4.615a.5.5,0,0,0,.5.5H5V27.5a.5.5,0,0,0,.5.5h21a.5.5,0,0,0,.5-.5V12.309h.547a.5.5,0,0,0,.5-.5V7.193a.5.5,0,0,0-.5-.5H20.623a4.72,4.72,0,0,0-2.37-3.629.5.5,0,0,0-.683.2L16,6.12,14.43,3.26A.5.5,0,0,0,13.986,3Zm-.12,1.307,1.312,2.386h-2.7A3.61,3.61,0,0,1,13.86,4.307Zm4.273,0a3.61,3.61,0,0,1,1.384,2.386h-2.7ZM5,7.693h9v3.616H5Zm10,0h2V27H15Zm3,0h9.046v3.616H18ZM6,12.31h8V27H6V12.309Zm12,0h8V27H18V12.309ZM14.3,27.956l.015.008Zm3.408,0-.021.008Z" transform="translate(-3.5 -2.499)" fill="#c5c2c2" stroke="#c5c2c2" stroke-width="1"/>
</svg>
