<svg xmlns="http://www.w3.org/2000/svg" width="29.12" height="29.121" viewBox="0 0 29.12 29.121">
  <g id="noun-refund-rupee-4037493" transform="translate(-115.642 -46.182)">
    <path id="Path_142" data-name="Path 142" d="M140.071,50.727h2.36a.7.7,0,0,0,0-1.4h-4.214a.716.716,0,0,0-.7.7v4.214a.7.7,0,1,0,1.4,0V51.612a12.644,12.644,0,1,1-8.681-3.525.7.7,0,1,0,0-1.4,14.048,14.048,0,1,0,9.833,4.046Z" transform="translate(0 0)" fill="#c5c2c2" stroke="#c5c2c2" stroke-width="1"/>
    <path id="Path_143" data-name="Path 143" d="M289.57,190.18a.7.7,0,0,1-.7.7h-2.81v.674a2.809,2.809,0,0,1-2.079,2.711l3.751,3.751a.884.884,0,0,1,0,.169.834.834,0,0,1,0,.2.7.7,0,0,1-.7.7h-.211a.784.784,0,0,1-.239-.127l-.1-.1-5.647-5.8a.744.744,0,0,1-.169-.464.7.7,0,0,1,.7-.7.689.689,0,0,1,.464.183.169.169,0,0,1,0,.07l.534.52h0a1.393,1.393,0,0,0,2.276-1.082v-.7h-3.47a.7.7,0,0,1,0-1.4h3.484v-1.4H281.17a.7.7,0,1,1,0-1.4h7.7a.7.7,0,1,1,0,1.4h-2.81v1.4h2.81a.7.7,0,0,1,.7.7Z" transform="translate(-154.416 -131.559)" fill="#c5c2c2" stroke="#c5c2c2" stroke-width="1"/>
  </g>
</svg>
